<svg width="85" height="38" viewBox="0 0 85 38" fill="none" xmlns="http://www.w3.org/2000/svg">
<path d="M49.5293 0H55.2364V21.0409C55.2364 22.3232 55.4098 23.2676 55.7607 23.8904C56.1116 24.5132 56.7771 24.8103 57.7774 24.8103C58.2903 24.8072 58.8 24.7276 59.2899 24.5742C59.825 24.4124 60.3446 24.2026 60.8427 23.9474V29.5526C60.1013 29.9187 59.3185 30.1921 58.5114 30.3667C57.7465 30.5323 56.9666 30.6169 56.1842 30.6191C54.1407 30.6191 52.5274 29.8945 51.3443 28.4454C50.1612 26.9962 49.5656 24.9134 49.5575 22.197L49.5293 0Z" fill="#FD5137"/>
<path d="M62.6939 19.0786C62.6646 17.4726 62.9682 15.8781 63.5852 14.3974C64.1481 13.0804 64.9715 11.8933 66.0052 10.9089C67.0189 9.95261 68.2139 9.21321 69.5182 8.73523C70.8665 8.23549 72.2926 7.98321 73.7289 7.99032H73.9629C75.4009 7.98481 76.8279 8.24415 78.1736 8.75559C79.4837 9.25025 80.6794 10.0108 81.6866 10.9904C82.7389 12.0268 83.5634 13.275 84.1066 14.6539C84.7266 16.2646 85.0293 17.9819 84.998 19.7096C85.0252 21.3154 84.7217 22.9095 84.1066 24.3908C83.5438 25.7078 82.7203 26.8949 81.6866 27.8793C80.6722 28.8347 79.4775 29.574 78.1736 30.053C76.8207 30.5576 75.3892 30.814 73.9467 30.8101H73.7128C72.2764 30.8172 70.8504 30.5649 69.5021 30.0652C68.1978 29.5872 67.0028 28.8478 65.9891 27.8915C64.9554 26.9071 64.1319 25.72 63.5691 24.403C62.9521 22.9223 62.6484 21.3278 62.6777 19.7218L62.6939 19.0786ZM73.7168 13.4775C73.0196 13.455 72.3248 13.5713 71.6722 13.82C71.0196 14.0686 70.422 14.4447 69.9134 14.9266C68.9051 15.8927 68.3996 17.2767 68.3969 19.0786V19.7055C68.3969 21.5074 68.9024 22.8914 69.9134 23.8575C70.4214 24.3402 71.019 24.7167 71.6718 24.9654C72.3245 25.2141 73.0195 25.3301 73.7168 25.3067H73.9508C74.648 25.3296 75.3429 25.2135 75.9956 24.9648C76.6483 24.7161 77.2459 24.3398 77.7542 23.8575C78.7625 22.8914 79.2667 21.5074 79.2667 19.7055V19.0786C79.2667 17.274 78.7625 15.89 77.7542 14.9266C76.7267 13.9541 75.3587 13.4329 73.9508 13.4775H73.7168Z" fill="#FD5137"/>
<path d="M6.80932 26.707L8.34601 30.7776C8.00428 31.2735 7.56148 31.6898 7.04729 31.9988C6.53415 32.2988 5.95031 32.4535 5.35733 32.4466C4.90067 32.4526 4.4468 32.374 4.01828 32.2146C3.58708 32.0413 3.16564 31.8442 2.75586 31.6243V37.6081C3.26842 37.7618 3.79571 37.86 4.32884 37.9012C4.9903 37.9663 5.59127 37.9989 6.13576 37.9989C7.18387 38.0194 8.22147 37.7849 9.16073 37.315C10.0599 36.8438 10.8631 36.2058 11.5283 35.4344C12.2543 34.5976 12.8686 33.6684 13.3554 32.6705C13.8885 31.5908 14.3545 30.4787 14.7509 29.3407L15.497 27.1792C14.4959 27.3015 13.4885 27.364 12.4801 27.3665C10.5711 27.3658 8.66846 27.1446 6.80932 26.707Z" fill="#FD5137"/>
<path d="M44.7574 14.6501C44.2141 13.2712 43.3896 12.0231 42.3374 10.9866C41.3301 10.0071 40.1345 9.2465 38.8244 8.75185C38.1466 8.49194 37.4456 8.29838 36.7311 8.17383C36.2837 10.0064 35.6315 11.7817 34.7871 13.4656C36.1355 13.4618 37.4343 13.9788 38.417 14.9107C39.4253 15.8768 39.9295 17.2608 39.9295 19.0627V19.6896C39.9295 21.4915 39.4253 22.8755 38.417 23.8416C37.9088 24.3239 37.3112 24.7002 36.6585 24.9488C36.0058 25.1975 35.3109 25.3137 34.6136 25.2907H34.3797C33.6824 25.3141 32.9873 25.1982 32.3346 24.9495C31.6819 24.7008 31.0843 24.3242 30.5763 23.8416C29.7831 23.0559 29.2794 22.0205 29.1485 20.9067C27.6589 22.257 26.0135 23.4214 24.248 24.3748C24.8109 25.6907 25.6344 26.8764 26.668 27.8593C27.6817 28.8156 28.8767 29.555 30.181 30.033C31.5274 30.5438 32.9535 30.8071 34.3918 30.8104H34.6257C36.062 30.8163 37.4878 30.5641 38.8365 30.0655C40.1403 29.5865 41.3351 28.8472 42.3495 27.8918C43.3831 26.9074 44.2066 25.7203 44.7695 24.4033C45.3846 22.922 45.6881 21.328 45.6608 19.7221C45.6904 17.9882 45.3835 16.2651 44.7574 14.6501Z" fill="#FD5137"/>
<path d="M15.9073 8.61703L11.2166 23.0758L5.97331 8.61703H0L6.8082 26.7068C8.66734 27.1443 10.57 27.3656 12.479 27.3662C13.4874 27.3638 14.4948 27.3013 15.4959 27.179L21.8927 8.61703H15.9073Z" fill="#FD5137"/>
<path d="M29.0708 19.7052V19.0784C29.0708 17.2737 29.5763 15.8897 30.5873 14.9264C31.0958 14.4444 31.6934 14.0684 32.3461 13.8197C32.9987 13.5711 33.6935 13.4547 34.3907 13.4772H34.794C35.6384 11.7933 36.2906 10.018 36.738 8.18545C36.0389 8.06115 35.3304 7.99848 34.6206 7.99819H34.3866C32.9503 7.99109 31.5242 8.24337 30.1759 8.74312C28.8716 9.22109 27.6766 9.9605 26.6629 10.9168C25.6292 11.9012 24.8057 13.0883 24.2429 14.4053C23.6259 15.886 23.3223 17.4805 23.3515 19.0865V19.7134C23.3223 21.3194 23.6259 22.9139 24.2429 24.3946C26.0084 23.4412 27.6537 22.2768 29.1434 20.9264C29.0893 20.5217 29.065 20.1136 29.0708 19.7052Z" fill="#FD5137"/>
</svg>
