<svg width="25" height="14" viewBox="0 0 25 14" fill="none" xmlns="http://www.w3.org/2000/svg">
<path d="M0.782 13V0.399999H6.2C7.748 0.399999 8.942 0.819999 9.782 1.66C10.43 2.308 10.754 3.148 10.754 4.18C10.754 5.188 10.442 6.004 9.818 6.628C9.194 7.252 8.366 7.66 7.334 7.852L11.204 13H9.458L5.804 8.104H2.204V13H0.782ZM2.204 6.826H6.074C7.034 6.826 7.814 6.592 8.414 6.124C9.014 5.656 9.314 5.014 9.314 4.198C9.314 3.418 9.026 2.812 8.45 2.38C7.886 1.936 7.1 1.714 6.092 1.714H2.204V6.826ZM18.8298 13.198C17.2338 13.198 15.9618 12.724 15.0138 11.776C14.0658 10.816 13.5918 9.466 13.5918 7.726V0.399999H15.0138V7.636C15.0138 8.992 15.3498 10.042 16.0218 10.786C16.7058 11.518 17.6538 11.884 18.8658 11.884C20.0538 11.884 20.9838 11.53 21.6558 10.822C22.3278 10.114 22.6638 9.082 22.6638 7.726V0.399999H24.0858V7.618C24.0858 9.418 23.6118 10.798 22.6638 11.758C21.7158 12.718 20.4378 13.198 18.8298 13.198Z" fill="#202020"/>
</svg>
