<svg width="15" height="19" viewBox="0 0 15 19" fill="none" xmlns="http://www.w3.org/2000/svg">
<path d="M12.7973 13.7946C11.4882 15.0635 9.78737 15.8065 7.96674 15.9153V18.5476C7.96674 18.7974 7.75768 19 7.5 19C7.24232 19 7.03326 18.7976 7.03326 18.5476V15.9153C5.21263 15.8065 3.512 15.0635 2.20274 13.7946C0.782316 12.4178 0 10.5942 0 8.65985C0 8.41007 0.208842 8.20743 0.466737 8.20743C0.724421 8.20743 0.933474 8.40987 0.933474 8.65985C0.933474 12.1696 3.87916 15.025 7.5 15.025C11.1208 15.025 14.0665 12.1696 14.0665 8.65985C14.0665 8.41007 14.2756 8.20743 14.5333 8.20743C14.7909 8.20743 15 8.40987 15 8.65985C15 10.5942 14.2177 12.4178 12.7973 13.7946ZM3.18484 8.66005V4.18279C3.18484 1.87641 5.12063 0 7.5 0C9.87937 0 11.8152 1.87641 11.8152 4.18279V8.65985C11.8152 10.9662 9.87937 12.8426 7.5 12.8426C5.12063 12.8426 3.18484 10.9664 3.18484 8.66005ZM4.11832 8.66005C4.11832 10.4675 5.63537 11.938 7.5 11.938C9.36463 11.938 10.8817 10.4675 10.8817 8.66005V4.18279C10.8817 2.37536 9.36463 0.904636 7.5 0.904636C5.63537 0.904636 4.11832 2.37515 4.11832 4.18279V8.66005Z" fill="#202020"/>
</svg>
